<?xml version="1.0" encoding="UTF-8" standalone="no"?>
<!DOCTYPE svg PUBLIC "-//W3C//DTD SVG 1.1//EN"
 "http://www.w3.org/Graphics/SVG/1.1/DTD/svg11.dtd">
<!-- Generated by graphviz version 12.1.2 (20240928.0832)
 -->
<!-- Title: list Pages: 1 -->
<svg width="900pt" height="281pt"
 viewBox="0.00 0.00 900.38 281.00" xmlns="http://www.w3.org/2000/svg" xmlns:xlink="http://www.w3.org/1999/xlink">
<g id="graph0" class="graph" transform="scale(1 1) rotate(0) translate(4 277)">
<title>list</title>
<polygon fill="white" stroke="none" points="-4,4 -4,-277 896.38,-277 896.38,4 -4,4"/>
<!-- FREE -->
<g id="node1" class="node">
<title>FREE</title>
<ellipse fill="none" stroke="black" cx="33.44" cy="-49.5" rx="33.44" ry="18"/>
<text text-anchor="middle" x="33.44" y="-44.45" font-family="Times New Roman,serif" font-size="14.00">FREE</text>
</g>
<!-- x4 -->
<g id="node6" class="node">
<title>x4</title>
<path fill="none" stroke="black" d="M114.88,-0.5C114.88,-0.5 157.13,-0.5 157.13,-0.5 163.13,-0.5 169.13,-6.5 169.13,-12.5 169.13,-12.5 169.13,-86.5 169.13,-86.5 169.13,-92.5 163.13,-98.5 157.13,-98.5 157.13,-98.5 114.88,-98.5 114.88,-98.5 108.88,-98.5 102.88,-92.5 102.88,-86.5 102.88,-86.5 102.88,-12.5 102.88,-12.5 102.88,-6.5 108.88,-0.5 114.88,-0.5"/>
<text text-anchor="middle" x="136" y="-81.2" font-family="Times New Roman,serif" font-size="14.00">id: 4</text>
<polyline fill="none" stroke="black" points="102.88,-74 169.13,-74"/>
<text text-anchor="middle" x="136" y="-56.7" font-family="Times New Roman,serif" font-size="14.00">data: 655</text>
<polyline fill="none" stroke="black" points="102.88,-49.5 169.13,-49.5"/>
<text text-anchor="middle" x="136" y="-32.2" font-family="Times New Roman,serif" font-size="14.00">next: 10</text>
<polyline fill="none" stroke="black" points="102.88,-25 169.13,-25"/>
<text text-anchor="middle" x="136" y="-7.7" font-family="Times New Roman,serif" font-size="14.00">prev: 9</text>
</g>
<!-- FREE&#45;&gt;x4 -->
<g id="edge24" class="edge">
<title>FREE&#45;&gt;x4</title>
<path fill="none" stroke="green" d="M67.37,-49.5C74.99,-49.5 83.21,-49.5 91.22,-49.5"/>
<polygon fill="green" stroke="green" points="91.17,-53 101.17,-49.5 91.17,-46 91.17,-53"/>
</g>
<!-- x0 -->
<g id="node2" class="node">
<title>x0</title>
<path fill="none" stroke="black" d="M18.31,-130.5C18.31,-130.5 48.56,-130.5 48.56,-130.5 54.56,-130.5 60.56,-136.5 60.56,-142.5 60.56,-142.5 60.56,-216.5 60.56,-216.5 60.56,-222.5 54.56,-228.5 48.56,-228.5 48.56,-228.5 18.31,-228.5 18.31,-228.5 12.31,-228.5 6.31,-222.5 6.31,-216.5 6.31,-216.5 6.31,-142.5 6.31,-142.5 6.31,-136.5 12.31,-130.5 18.31,-130.5"/>
<text text-anchor="middle" x="33.44" y="-211.2" font-family="Times New Roman,serif" font-size="14.00">id: 0</text>
<polyline fill="none" stroke="black" points="6.31,-204 60.56,-204"/>
<text text-anchor="middle" x="33.44" y="-186.7" font-family="Times New Roman,serif" font-size="14.00">data: 0</text>
<polyline fill="none" stroke="black" points="6.31,-179.5 60.56,-179.5"/>
<text text-anchor="middle" x="33.44" y="-162.2" font-family="Times New Roman,serif" font-size="14.00">next: 1</text>
<polyline fill="none" stroke="black" points="6.31,-155 60.56,-155"/>
<text text-anchor="middle" x="33.44" y="-137.7" font-family="Times New Roman,serif" font-size="14.00">prev: 8</text>
</g>
<!-- x1 -->
<g id="node3" class="node">
<title>x1</title>
<path fill="none" stroke="black" d="M120.88,-174.5C120.88,-174.5 151.13,-174.5 151.13,-174.5 157.13,-174.5 163.13,-180.5 163.13,-186.5 163.13,-186.5 163.13,-260.5 163.13,-260.5 163.13,-266.5 157.13,-272.5 151.13,-272.5 151.13,-272.5 120.88,-272.5 120.88,-272.5 114.88,-272.5 108.88,-266.5 108.88,-260.5 108.88,-260.5 108.88,-186.5 108.88,-186.5 108.88,-180.5 114.88,-174.5 120.88,-174.5"/>
<text text-anchor="middle" x="136" y="-255.2" font-family="Times New Roman,serif" font-size="14.00">id: 1</text>
<polyline fill="none" stroke="black" points="108.88,-248 163.13,-248"/>
<text text-anchor="middle" x="136" y="-230.7" font-family="Times New Roman,serif" font-size="14.00">data: 5</text>
<polyline fill="none" stroke="black" points="108.88,-223.5 163.13,-223.5"/>
<text text-anchor="middle" x="136" y="-206.2" font-family="Times New Roman,serif" font-size="14.00">next: 2</text>
<polyline fill="none" stroke="black" points="108.88,-199 163.13,-199"/>
<text text-anchor="middle" x="136" y="-181.7" font-family="Times New Roman,serif" font-size="14.00">prev: 0</text>
</g>
<!-- x0&#45;&gt;x1 -->
<g id="edge1" class="edge">
<title>x0&#45;&gt;x1</title>
<path fill="none" stroke="blue" d="M60.86,-185.04C72.32,-189.3 85.93,-195.08 98.34,-200.93"/>
<polygon fill="blue" stroke="blue" points="96.52,-203.94 107.05,-205.17 99.58,-197.65 96.52,-203.94"/>
</g>
<!-- x8 -->
<g id="node10" class="node">
<title>x8</title>
<path fill="none" stroke="black" d="M831.38,-130.5C831.38,-130.5 880.38,-130.5 880.38,-130.5 886.38,-130.5 892.38,-136.5 892.38,-142.5 892.38,-142.5 892.38,-216.5 892.38,-216.5 892.38,-222.5 886.38,-228.5 880.38,-228.5 880.38,-228.5 831.38,-228.5 831.38,-228.5 825.38,-228.5 819.38,-222.5 819.38,-216.5 819.38,-216.5 819.38,-142.5 819.38,-142.5 819.38,-136.5 825.38,-130.5 831.38,-130.5"/>
<text text-anchor="middle" x="855.88" y="-211.2" font-family="Times New Roman,serif" font-size="14.00">id: 8</text>
<polyline fill="none" stroke="black" points="819.38,-204 892.38,-204"/>
<text text-anchor="middle" x="855.88" y="-186.7" font-family="Times New Roman,serif" font-size="14.00">data: 1488</text>
<polyline fill="none" stroke="black" points="819.38,-179.5 892.38,-179.5"/>
<text text-anchor="middle" x="855.88" y="-162.2" font-family="Times New Roman,serif" font-size="14.00">next: 0</text>
<polyline fill="none" stroke="black" points="819.38,-155 892.38,-155"/>
<text text-anchor="middle" x="855.88" y="-137.7" font-family="Times New Roman,serif" font-size="14.00">prev: 7</text>
</g>
<!-- x0&#45;&gt;x8 -->
<g id="edge10" class="edge">
<title>x0&#45;&gt;x8</title>
<path fill="none" stroke="red" d="M60.96,-164.25C99.34,-148.52 172.82,-127.5 237.25,-127.5 237.25,-127.5 237.25,-127.5 652.38,-127.5 706.86,-127.5 767.83,-142.58 808.5,-156.75"/>
<polygon fill="red" stroke="red" points="807.13,-159.98 817.73,-160.09 809.52,-153.4 807.13,-159.98"/>
</g>
<!-- x1&#45;&gt;x0 -->
<g id="edge18" class="edge">
<title>x1&#45;&gt;x0</title>
<path fill="none" stroke="red" d="M108.41,-217.9C96.93,-213.62 83.32,-207.83 70.92,-201.98"/>
<polygon fill="red" stroke="red" points="72.74,-198.98 62.22,-197.75 69.68,-205.27 72.74,-198.98"/>
</g>
<!-- x2 -->
<g id="node4" class="node">
<title>x2</title>
<path fill="none" stroke="black" d="M220.5,-174.5C220.5,-174.5 256,-174.5 256,-174.5 262,-174.5 268,-180.5 268,-186.5 268,-186.5 268,-260.5 268,-260.5 268,-266.5 262,-272.5 256,-272.5 256,-272.5 220.5,-272.5 220.5,-272.5 214.5,-272.5 208.5,-266.5 208.5,-260.5 208.5,-260.5 208.5,-186.5 208.5,-186.5 208.5,-180.5 214.5,-174.5 220.5,-174.5"/>
<text text-anchor="middle" x="238.25" y="-255.2" font-family="Times New Roman,serif" font-size="14.00">id: 2</text>
<polyline fill="none" stroke="black" points="208.5,-248 268,-248"/>
<text text-anchor="middle" x="238.25" y="-230.7" font-family="Times New Roman,serif" font-size="14.00">data: 16</text>
<polyline fill="none" stroke="black" points="208.5,-223.5 268,-223.5"/>
<text text-anchor="middle" x="238.25" y="-206.2" font-family="Times New Roman,serif" font-size="14.00">next: 3</text>
<polyline fill="none" stroke="black" points="208.5,-199 268,-199"/>
<text text-anchor="middle" x="238.25" y="-181.7" font-family="Times New Roman,serif" font-size="14.00">prev: 1</text>
</g>
<!-- x1&#45;&gt;x2 -->
<g id="edge2" class="edge">
<title>x1&#45;&gt;x2</title>
<path fill="none" stroke="blue" d="M163.6,-217.46C173.76,-216.8 185.59,-216.6 196.76,-216.86"/>
<polygon fill="blue" stroke="blue" points="196.41,-220.35 206.54,-217.24 196.69,-213.36 196.41,-220.35"/>
</g>
<!-- x2&#45;&gt;x1 -->
<g id="edge17" class="edge">
<title>x2&#45;&gt;x1</title>
<path fill="none" stroke="red" d="M208.05,-229.7C197.74,-230.27 185.99,-230.4 175.05,-230.07"/>
<polygon fill="red" stroke="red" points="175.27,-226.58 165.12,-229.61 174.94,-233.57 175.27,-226.58"/>
</g>
<!-- x3 -->
<g id="node5" class="node">
<title>x3</title>
<path fill="none" stroke="black" d="M322.75,-174.5C322.75,-174.5 365,-174.5 365,-174.5 371,-174.5 377,-180.5 377,-186.5 377,-186.5 377,-260.5 377,-260.5 377,-266.5 371,-272.5 365,-272.5 365,-272.5 322.75,-272.5 322.75,-272.5 316.75,-272.5 310.75,-266.5 310.75,-260.5 310.75,-260.5 310.75,-186.5 310.75,-186.5 310.75,-180.5 316.75,-174.5 322.75,-174.5"/>
<text text-anchor="middle" x="343.88" y="-255.2" font-family="Times New Roman,serif" font-size="14.00">id: 3</text>
<polyline fill="none" stroke="black" points="310.75,-248 377,-248"/>
<text text-anchor="middle" x="343.88" y="-230.7" font-family="Times New Roman,serif" font-size="14.00">data: 226</text>
<polyline fill="none" stroke="black" points="310.75,-223.5 377,-223.5"/>
<text text-anchor="middle" x="343.88" y="-206.2" font-family="Times New Roman,serif" font-size="14.00">next: 9</text>
<polyline fill="none" stroke="black" points="310.75,-199 377,-199"/>
<text text-anchor="middle" x="343.88" y="-181.7" font-family="Times New Roman,serif" font-size="14.00">prev: 2</text>
</g>
<!-- x2&#45;&gt;x3 -->
<g id="edge3" class="edge">
<title>x2&#45;&gt;x3</title>
<path fill="none" stroke="blue" d="M268.39,-217.36C277.87,-216.82 288.62,-216.64 298.93,-216.82"/>
<polygon fill="blue" stroke="blue" points="298.69,-220.31 308.8,-217.13 298.92,-213.32 298.69,-220.31"/>
</g>
<!-- x3&#45;&gt;x2 -->
<g id="edge16" class="edge">
<title>x3&#45;&gt;x2</title>
<path fill="none" stroke="red" d="M310.31,-229.82C300.66,-230.27 289.97,-230.37 279.87,-230.11"/>
<polygon fill="red" stroke="red" points="280.04,-226.61 269.9,-229.7 279.75,-233.61 280.04,-226.61"/>
</g>
<!-- x9 -->
<g id="node11" class="node">
<title>x9</title>
<path fill="none" stroke="black" d="M428.38,-174.5C428.38,-174.5 477.38,-174.5 477.38,-174.5 483.38,-174.5 489.38,-180.5 489.38,-186.5 489.38,-186.5 489.38,-260.5 489.38,-260.5 489.38,-266.5 483.38,-272.5 477.38,-272.5 477.38,-272.5 428.38,-272.5 428.38,-272.5 422.38,-272.5 416.38,-266.5 416.38,-260.5 416.38,-260.5 416.38,-186.5 416.38,-186.5 416.38,-180.5 422.38,-174.5 428.38,-174.5"/>
<text text-anchor="middle" x="452.88" y="-255.2" font-family="Times New Roman,serif" font-size="14.00">id: 9</text>
<polyline fill="none" stroke="black" points="416.38,-248 489.38,-248"/>
<text text-anchor="middle" x="452.88" y="-230.7" font-family="Times New Roman,serif" font-size="14.00">data: 4444</text>
<polyline fill="none" stroke="black" points="416.38,-223.5 489.38,-223.5"/>
<text text-anchor="middle" x="452.88" y="-206.2" font-family="Times New Roman,serif" font-size="14.00">next: 5</text>
<polyline fill="none" stroke="black" points="416.38,-199 489.38,-199"/>
<text text-anchor="middle" x="452.88" y="-181.7" font-family="Times New Roman,serif" font-size="14.00">prev: 3</text>
</g>
<!-- x3&#45;&gt;x9 -->
<g id="edge4" class="edge">
<title>x3&#45;&gt;x9</title>
<path fill="none" stroke="blue" d="M377.27,-217.24C386.02,-216.81 395.66,-216.66 405.02,-216.8"/>
<polygon fill="blue" stroke="blue" points="404.63,-220.29 414.72,-217.06 404.82,-213.29 404.63,-220.29"/>
</g>
<!-- x10 -->
<g id="node12" class="node">
<title>x10</title>
<path fill="none" stroke="black" d="M217.13,-0.5C217.13,-0.5 259.38,-0.5 259.38,-0.5 265.38,-0.5 271.38,-6.5 271.38,-12.5 271.38,-12.5 271.38,-86.5 271.38,-86.5 271.38,-92.5 265.38,-98.5 259.38,-98.5 259.38,-98.5 217.13,-98.5 217.13,-98.5 211.13,-98.5 205.13,-92.5 205.13,-86.5 205.13,-86.5 205.13,-12.5 205.13,-12.5 205.13,-6.5 211.13,-0.5 217.13,-0.5"/>
<text text-anchor="middle" x="238.25" y="-81.2" font-family="Times New Roman,serif" font-size="14.00">id: 10</text>
<polyline fill="none" stroke="black" points="205.13,-74 271.38,-74"/>
<text text-anchor="middle" x="238.25" y="-56.7" font-family="Times New Roman,serif" font-size="14.00">data: 324</text>
<polyline fill="none" stroke="black" points="205.13,-49.5 271.38,-49.5"/>
<text text-anchor="middle" x="238.25" y="-32.2" font-family="Times New Roman,serif" font-size="14.00">next: 11</text>
<polyline fill="none" stroke="black" points="205.13,-25 271.38,-25"/>
<text text-anchor="middle" x="238.25" y="-7.7" font-family="Times New Roman,serif" font-size="14.00">prev: 9</text>
</g>
<!-- x4&#45;&gt;x10 -->
<g id="edge19" class="edge">
<title>x4&#45;&gt;x10</title>
<path fill="none" stroke="green" d="M169.55,-49.5C177.16,-49.5 185.38,-49.5 193.39,-49.5"/>
<polygon fill="green" stroke="green" points="193.35,-53 203.35,-49.5 193.35,-46 193.35,-53"/>
</g>
<!-- x5 -->
<g id="node7" class="node">
<title>x5</title>
<path fill="none" stroke="black" d="M537.75,-174.5C537.75,-174.5 573.25,-174.5 573.25,-174.5 579.25,-174.5 585.25,-180.5 585.25,-186.5 585.25,-186.5 585.25,-260.5 585.25,-260.5 585.25,-266.5 579.25,-272.5 573.25,-272.5 573.25,-272.5 537.75,-272.5 537.75,-272.5 531.75,-272.5 525.75,-266.5 525.75,-260.5 525.75,-260.5 525.75,-186.5 525.75,-186.5 525.75,-180.5 531.75,-174.5 537.75,-174.5"/>
<text text-anchor="middle" x="555.5" y="-255.2" font-family="Times New Roman,serif" font-size="14.00">id: 5</text>
<polyline fill="none" stroke="black" points="525.75,-248 585.25,-248"/>
<text text-anchor="middle" x="555.5" y="-230.7" font-family="Times New Roman,serif" font-size="14.00">data: 90</text>
<polyline fill="none" stroke="black" points="525.75,-223.5 585.25,-223.5"/>
<text text-anchor="middle" x="555.5" y="-206.2" font-family="Times New Roman,serif" font-size="14.00">next: 6</text>
<polyline fill="none" stroke="black" points="525.75,-199 585.25,-199"/>
<text text-anchor="middle" x="555.5" y="-181.7" font-family="Times New Roman,serif" font-size="14.00">prev: 9</text>
</g>
<!-- x6 -->
<g id="node8" class="node">
<title>x6</title>
<path fill="none" stroke="black" d="M633.63,-174.5C633.63,-174.5 669.13,-174.5 669.13,-174.5 675.13,-174.5 681.13,-180.5 681.13,-186.5 681.13,-186.5 681.13,-260.5 681.13,-260.5 681.13,-266.5 675.13,-272.5 669.13,-272.5 669.13,-272.5 633.63,-272.5 633.63,-272.5 627.63,-272.5 621.63,-266.5 621.63,-260.5 621.63,-260.5 621.63,-186.5 621.63,-186.5 621.63,-180.5 627.63,-174.5 633.63,-174.5"/>
<text text-anchor="middle" x="651.38" y="-255.2" font-family="Times New Roman,serif" font-size="14.00">id: 6</text>
<polyline fill="none" stroke="black" points="621.63,-248 681.13,-248"/>
<text text-anchor="middle" x="651.38" y="-230.7" font-family="Times New Roman,serif" font-size="14.00">data: 14</text>
<polyline fill="none" stroke="black" points="621.63,-223.5 681.13,-223.5"/>
<text text-anchor="middle" x="651.38" y="-206.2" font-family="Times New Roman,serif" font-size="14.00">next: 7</text>
<polyline fill="none" stroke="black" points="621.63,-199 681.13,-199"/>
<text text-anchor="middle" x="651.38" y="-181.7" font-family="Times New Roman,serif" font-size="14.00">prev: 5</text>
</g>
<!-- x5&#45;&gt;x6 -->
<g id="edge6" class="edge">
<title>x5&#45;&gt;x6</title>
<path fill="none" stroke="blue" d="M585.69,-217.2C593.37,-216.79 601.8,-216.66 609.96,-216.81"/>
<polygon fill="blue" stroke="blue" points="609.58,-220.3 619.69,-217.15 609.82,-213.3 609.58,-220.3"/>
</g>
<!-- x5&#45;&gt;x9 -->
<g id="edge14" class="edge">
<title>x5&#45;&gt;x9</title>
<path fill="none" stroke="red" d="M525.48,-229.68C517.79,-230.12 509.29,-230.3 500.9,-230.24"/>
<polygon fill="red" stroke="red" points="501.22,-226.74 491.15,-230.03 501.07,-233.74 501.22,-226.74"/>
</g>
<!-- x6&#45;&gt;x5 -->
<g id="edge13" class="edge">
<title>x6&#45;&gt;x5</title>
<path fill="none" stroke="red" d="M621.21,-229.8C613.53,-230.21 605.1,-230.34 596.94,-230.19"/>
<polygon fill="red" stroke="red" points="597.32,-226.7 587.2,-229.85 597.07,-233.7 597.32,-226.7"/>
</g>
<!-- x7 -->
<g id="node9" class="node">
<title>x7</title>
<path fill="none" stroke="black" d="M729.13,-174.5C729.13,-174.5 771.38,-174.5 771.38,-174.5 777.38,-174.5 783.38,-180.5 783.38,-186.5 783.38,-186.5 783.38,-260.5 783.38,-260.5 783.38,-266.5 777.38,-272.5 771.38,-272.5 771.38,-272.5 729.13,-272.5 729.13,-272.5 723.13,-272.5 717.13,-266.5 717.13,-260.5 717.13,-260.5 717.13,-186.5 717.13,-186.5 717.13,-180.5 723.13,-174.5 729.13,-174.5"/>
<text text-anchor="middle" x="750.25" y="-255.2" font-family="Times New Roman,serif" font-size="14.00">id: 7</text>
<polyline fill="none" stroke="black" points="717.13,-248 783.38,-248"/>
<text text-anchor="middle" x="750.25" y="-230.7" font-family="Times New Roman,serif" font-size="14.00">data: 324</text>
<polyline fill="none" stroke="black" points="717.13,-223.5 783.38,-223.5"/>
<text text-anchor="middle" x="750.25" y="-206.2" font-family="Times New Roman,serif" font-size="14.00">next: 8</text>
<polyline fill="none" stroke="black" points="717.13,-199 783.38,-199"/>
<text text-anchor="middle" x="750.25" y="-181.7" font-family="Times New Roman,serif" font-size="14.00">prev: 6</text>
</g>
<!-- x6&#45;&gt;x7 -->
<g id="edge7" class="edge">
<title>x6&#45;&gt;x7</title>
<path fill="none" stroke="blue" d="M681.44,-217.25C689.02,-216.84 697.35,-216.68 705.51,-216.78"/>
<polygon fill="blue" stroke="blue" points="705.21,-220.27 715.3,-217.05 705.4,-213.27 705.21,-220.27"/>
</g>
<!-- x7&#45;&gt;x6 -->
<g id="edge12" class="edge">
<title>x7&#45;&gt;x6</title>
<path fill="none" stroke="red" d="M716.82,-229.91C709.13,-230.25 700.83,-230.33 692.84,-230.17"/>
<polygon fill="red" stroke="red" points="693.08,-226.67 682.95,-229.8 692.82,-233.67 693.08,-226.67"/>
</g>
<!-- x7&#45;&gt;x8 -->
<g id="edge8" class="edge">
<title>x7&#45;&gt;x8</title>
<path fill="none" stroke="blue" d="M783.75,-203.38C791.51,-199.72 799.95,-196.01 808.2,-192.6"/>
<polygon fill="blue" stroke="blue" points="809.5,-195.85 817.48,-188.88 806.9,-189.35 809.5,-195.85"/>
</g>
<!-- x8&#45;&gt;x0 -->
<g id="edge9" class="edge">
<title>x8&#45;&gt;x0</title>
<path fill="none" stroke="blue" d="M819.15,-173.75C779.06,-163.47 711.86,-145.5 652.38,-145.5 237.25,-145.5 237.25,-145.5 237.25,-145.5 178.49,-145.5 112.18,-162.99 71.86,-173.33"/>
<polygon fill="blue" stroke="blue" points="71.26,-169.87 62.43,-175.72 72.98,-176.65 71.26,-169.87"/>
</g>
<!-- x8&#45;&gt;x7 -->
<g id="edge11" class="edge">
<title>x8&#45;&gt;x7</title>
<path fill="none" stroke="red" d="M818.89,-201.24C810.95,-204.91 802.46,-208.58 794.27,-211.9"/>
<polygon fill="red" stroke="red" points="793.2,-208.56 785.16,-215.46 795.75,-215.08 793.2,-208.56"/>
</g>
<!-- x9&#45;&gt;x3 -->
<g id="edge15" class="edge">
<title>x9&#45;&gt;x3</title>
<path fill="none" stroke="red" d="M416.23,-229.9C407.38,-230.26 397.8,-230.34 388.61,-230.15"/>
<polygon fill="red" stroke="red" points="388.9,-226.66 378.78,-229.81 388.66,-233.65 388.9,-226.66"/>
</g>
<!-- x9&#45;&gt;x5 -->
<g id="edge5" class="edge">
<title>x9&#45;&gt;x5</title>
<path fill="none" stroke="blue" d="M489.64,-217.01C497.53,-216.72 505.95,-216.67 514.01,-216.87"/>
<polygon fill="blue" stroke="blue" points="513.84,-220.36 523.97,-217.26 514.11,-213.37 513.84,-220.36"/>
</g>
<!-- x11 -->
<g id="node13" class="node">
<title>x11</title>
<path fill="none" stroke="black" d="M319.38,-0.5C319.38,-0.5 368.38,-0.5 368.38,-0.5 374.38,-0.5 380.38,-6.5 380.38,-12.5 380.38,-12.5 380.38,-86.5 380.38,-86.5 380.38,-92.5 374.38,-98.5 368.38,-98.5 368.38,-98.5 319.38,-98.5 319.38,-98.5 313.38,-98.5 307.38,-92.5 307.38,-86.5 307.38,-86.5 307.38,-12.5 307.38,-12.5 307.38,-6.5 313.38,-0.5 319.38,-0.5"/>
<text text-anchor="middle" x="343.88" y="-81.2" font-family="Times New Roman,serif" font-size="14.00">id: 11</text>
<polyline fill="none" stroke="black" points="307.38,-74 380.38,-74"/>
<text text-anchor="middle" x="343.88" y="-56.7" font-family="Times New Roman,serif" font-size="14.00">data: 1488</text>
<polyline fill="none" stroke="black" points="307.38,-49.5 380.38,-49.5"/>
<text text-anchor="middle" x="343.88" y="-32.2" font-family="Times New Roman,serif" font-size="14.00">next: 12</text>
<polyline fill="none" stroke="black" points="307.38,-25 380.38,-25"/>
<text text-anchor="middle" x="343.88" y="-7.7" font-family="Times New Roman,serif" font-size="14.00">prev: 10</text>
</g>
<!-- x10&#45;&gt;x11 -->
<g id="edge20" class="edge">
<title>x10&#45;&gt;x11</title>
<path fill="none" stroke="green" d="M271.75,-49.5C279.34,-49.5 287.57,-49.5 295.65,-49.5"/>
<polygon fill="green" stroke="green" points="295.37,-53 305.37,-49.5 295.37,-46 295.37,-53"/>
</g>
<!-- x12 -->
<g id="node14" class="node">
<title>x12</title>
<path fill="none" stroke="black" d="M434.75,-0.5C434.75,-0.5 471,-0.5 471,-0.5 477,-0.5 483,-6.5 483,-12.5 483,-12.5 483,-86.5 483,-86.5 483,-92.5 477,-98.5 471,-98.5 471,-98.5 434.75,-98.5 434.75,-98.5 428.75,-98.5 422.75,-92.5 422.75,-86.5 422.75,-86.5 422.75,-12.5 422.75,-12.5 422.75,-6.5 428.75,-0.5 434.75,-0.5"/>
<text text-anchor="middle" x="452.88" y="-81.2" font-family="Times New Roman,serif" font-size="14.00">id: 12</text>
<polyline fill="none" stroke="black" points="422.75,-74 483,-74"/>
<text text-anchor="middle" x="452.88" y="-56.7" font-family="Times New Roman,serif" font-size="14.00">data: 0</text>
<polyline fill="none" stroke="black" points="422.75,-49.5 483,-49.5"/>
<text text-anchor="middle" x="452.88" y="-32.2" font-family="Times New Roman,serif" font-size="14.00">next: 13</text>
<polyline fill="none" stroke="black" points="422.75,-25 483,-25"/>
<text text-anchor="middle" x="452.88" y="-7.7" font-family="Times New Roman,serif" font-size="14.00">prev: 0</text>
</g>
<!-- x11&#45;&gt;x12 -->
<g id="edge21" class="edge">
<title>x11&#45;&gt;x12</title>
<path fill="none" stroke="green" d="M380.8,-49.5C390.49,-49.5 401.04,-49.5 410.98,-49.5"/>
<polygon fill="green" stroke="green" points="410.76,-53 420.76,-49.5 410.76,-46 410.76,-53"/>
</g>
<!-- x13 -->
<g id="node15" class="node">
<title>x13</title>
<path fill="none" stroke="black" d="M537.38,-0.5C537.38,-0.5 573.63,-0.5 573.63,-0.5 579.63,-0.5 585.63,-6.5 585.63,-12.5 585.63,-12.5 585.63,-86.5 585.63,-86.5 585.63,-92.5 579.63,-98.5 573.63,-98.5 573.63,-98.5 537.38,-98.5 537.38,-98.5 531.38,-98.5 525.38,-92.5 525.38,-86.5 525.38,-86.5 525.38,-12.5 525.38,-12.5 525.38,-6.5 531.38,-0.5 537.38,-0.5"/>
<text text-anchor="middle" x="555.5" y="-81.2" font-family="Times New Roman,serif" font-size="14.00">id: 13</text>
<polyline fill="none" stroke="black" points="525.38,-74 585.63,-74"/>
<text text-anchor="middle" x="555.5" y="-56.7" font-family="Times New Roman,serif" font-size="14.00">data: 0</text>
<polyline fill="none" stroke="black" points="525.38,-49.5 585.63,-49.5"/>
<text text-anchor="middle" x="555.5" y="-32.2" font-family="Times New Roman,serif" font-size="14.00">next: 14</text>
<polyline fill="none" stroke="black" points="525.38,-25 585.63,-25"/>
<text text-anchor="middle" x="555.5" y="-7.7" font-family="Times New Roman,serif" font-size="14.00">prev: 0</text>
</g>
<!-- x12&#45;&gt;x13 -->
<g id="edge22" class="edge">
<title>x12&#45;&gt;x13</title>
<path fill="none" stroke="green" d="M483.25,-49.5C492.78,-49.5 503.52,-49.5 513.72,-49.5"/>
<polygon fill="green" stroke="green" points="513.4,-53 523.4,-49.5 513.4,-46 513.4,-53"/>
</g>
<!-- x14 -->
<g id="node16" class="node">
<title>x14</title>
<path fill="none" stroke="black" d="M636.25,-0.5C636.25,-0.5 666.5,-0.5 666.5,-0.5 672.5,-0.5 678.5,-6.5 678.5,-12.5 678.5,-12.5 678.5,-86.5 678.5,-86.5 678.5,-92.5 672.5,-98.5 666.5,-98.5 666.5,-98.5 636.25,-98.5 636.25,-98.5 630.25,-98.5 624.25,-92.5 624.25,-86.5 624.25,-86.5 624.25,-12.5 624.25,-12.5 624.25,-6.5 630.25,-0.5 636.25,-0.5"/>
<text text-anchor="middle" x="651.38" y="-81.2" font-family="Times New Roman,serif" font-size="14.00">id: 14</text>
<polyline fill="none" stroke="black" points="624.25,-74 678.5,-74"/>
<text text-anchor="middle" x="651.38" y="-56.7" font-family="Times New Roman,serif" font-size="14.00">data: 0</text>
<polyline fill="none" stroke="black" points="624.25,-49.5 678.5,-49.5"/>
<text text-anchor="middle" x="651.38" y="-32.2" font-family="Times New Roman,serif" font-size="14.00">next: 0</text>
<polyline fill="none" stroke="black" points="624.25,-25 678.5,-25"/>
<text text-anchor="middle" x="651.38" y="-7.7" font-family="Times New Roman,serif" font-size="14.00">prev: 0</text>
</g>
<!-- x13&#45;&gt;x14 -->
<g id="edge23" class="edge">
<title>x13&#45;&gt;x14</title>
<path fill="none" stroke="green" d="M585.95,-49.5C594.4,-49.5 603.73,-49.5 612.6,-49.5"/>
<polygon fill="green" stroke="green" points="612.39,-53 622.39,-49.5 612.39,-46 612.39,-53"/>
</g>
</g>
</svg>
